<svg width="47" height="47" viewBox="0 0 47 47" fill="none" xmlns="http://www.w3.org/2000/svg">
<path d="M23.5 21C27.0899 21 30 18.3137 30 15C30 11.6863 27.0899 9 23.5 9C19.9101 9 17 11.6863 17 15C17 18.3137 19.9101 21 23.5 21Z" stroke="#464646" stroke-width="4" stroke-linecap="round" stroke-linejoin="round"/>
<path d="M12 32C13.2018 29.8624 14.8909 28.0957 16.9049 26.8698C18.9189 25.6439 21.19 25 23.5 25C25.81 25 28.0811 25.6439 30.0951 26.8698C32.1091 28.0957 33.7982 29.8624 35 32" stroke="#464646" stroke-width="4" stroke-linecap="round" stroke-linejoin="round"/>
<g filter="url(#filter0_d_27_6)">
<path d="M23.5 37C33.165 37 41 29.165 41 19.5C41 9.83502 33.165 2 23.5 2C13.835 2 6 9.83502 6 19.5C6 29.165 13.835 37 23.5 37Z" stroke="#464646" stroke-width="4" stroke-linecap="round" stroke-linejoin="round" shape-rendering="crispEdges"/>
</g>
<defs>
<filter id="filter0_d_27_6" x="0" y="0" width="47" height="47" filterUnits="userSpaceOnUse" color-interpolation-filters="sRGB">
<feFlood flood-opacity="0" result="BackgroundImageFix"/>
<feColorMatrix in="SourceAlpha" type="matrix" values="0 0 0 0 0 0 0 0 0 0 0 0 0 0 0 0 0 0 127 0" result="hardAlpha"/>
<feOffset dy="4"/>
<feGaussianBlur stdDeviation="2"/>
<feComposite in2="hardAlpha" operator="out"/>
<feColorMatrix type="matrix" values="0 0 0 0 0 0 0 0 0 0 0 0 0 0 0 0 0 0 0.25 0"/>
<feBlend mode="normal" in2="BackgroundImageFix" result="effect1_dropShadow_27_6"/>
<feBlend mode="normal" in="SourceGraphic" in2="effect1_dropShadow_27_6" result="shape"/>
</filter>
</defs>
</svg>
