<svg width="45" height="42" viewBox="0 0 45 42" fill="none" xmlns="http://www.w3.org/2000/svg">
<mask id="path-1-outside-1_7_175" maskUnits="userSpaceOnUse" x="0" y="0" width="45" height="42" fill="black">
<rect fill="white" width="45" height="42"/>
<path d="M22.506 37.5114L6.07844 21.0838C4.76807 19.7734 3.89449 18.25 3.4577 16.5135C3.03156 14.777 3.03689 13.0511 3.47368 11.3359C3.91047 9.61008 4.77872 8.10795 6.07844 6.82954C7.41011 5.51917 8.92822 4.65092 10.6328 4.22479C12.348 3.788 14.0578 3.788 15.7624 4.22479C17.4776 4.66158 19.001 5.52983 20.3327 6.82954L22.506 8.93892L24.6793 6.82954C26.0216 5.52983 27.5451 4.66158 29.2496 4.22479C30.9541 3.788 32.6587 3.788 34.3632 4.22479C36.0784 4.65092 37.6019 5.51917 38.9336 6.82954C40.2333 8.10795 41.1015 9.61008 41.5383 11.3359C41.9751 13.0511 41.9751 14.777 41.5383 16.5135C41.1122 18.25 40.2439 19.7734 38.9336 21.0838L22.506 37.5114ZM22.506 30.9116L35.6257 17.7759C36.3288 17.0835 36.7975 16.2738 37.0319 15.3469C37.2663 14.4094 37.2663 13.4773 37.0319 12.5504C36.8082 11.6236 36.3501 10.8246 35.6576 10.1534C34.9438 9.43963 34.1235 8.96555 33.1967 8.73118C32.2805 8.4968 31.359 8.50213 30.4321 8.74716C29.5053 8.98153 28.669 9.46094 27.9233 10.1854L22.506 15.4428L17.0887 10.1854C16.3536 9.46094 15.5174 8.98153 14.5799 8.74716C13.653 8.50213 12.7315 8.4968 11.8153 8.73118C10.8991 8.96555 10.0788 9.43963 9.35436 10.1534C8.66189 10.8246 8.19846 11.6236 7.96409 12.5504C7.74037 13.4773 7.74569 14.4094 7.98007 15.3469C8.2251 16.2738 8.69385 17.0835 9.38632 17.7759L22.506 30.9116Z"/>
</mask>
<path d="M22.506 37.5114L6.07844 21.0838C4.76807 19.7734 3.89449 18.25 3.4577 16.5135C3.03156 14.777 3.03689 13.0511 3.47368 11.3359C3.91047 9.61008 4.77872 8.10795 6.07844 6.82954C7.41011 5.51917 8.92822 4.65092 10.6328 4.22479C12.348 3.788 14.0578 3.788 15.7624 4.22479C17.4776 4.66158 19.001 5.52983 20.3327 6.82954L22.506 8.93892L24.6793 6.82954C26.0216 5.52983 27.5451 4.66158 29.2496 4.22479C30.9541 3.788 32.6587 3.788 34.3632 4.22479C36.0784 4.65092 37.6019 5.51917 38.9336 6.82954C40.2333 8.10795 41.1015 9.61008 41.5383 11.3359C41.9751 13.0511 41.9751 14.777 41.5383 16.5135C41.1122 18.25 40.2439 19.7734 38.9336 21.0838L22.506 37.5114ZM22.506 30.9116L35.6257 17.7759C36.3288 17.0835 36.7975 16.2738 37.0319 15.3469C37.2663 14.4094 37.2663 13.4773 37.0319 12.5504C36.8082 11.6236 36.3501 10.8246 35.6576 10.1534C34.9438 9.43963 34.1235 8.96555 33.1967 8.73118C32.2805 8.4968 31.359 8.50213 30.4321 8.74716C29.5053 8.98153 28.669 9.46094 27.9233 10.1854L22.506 15.4428L17.0887 10.1854C16.3536 9.46094 15.5174 8.98153 14.5799 8.74716C13.653 8.50213 12.7315 8.4968 11.8153 8.73118C10.8991 8.96555 10.0788 9.43963 9.35436 10.1534C8.66189 10.8246 8.19846 11.6236 7.96409 12.5504C7.74037 13.4773 7.74569 14.4094 7.98007 15.3469C8.2251 16.2738 8.69385 17.0835 9.38632 17.7759L22.506 30.9116Z" fill="#E35050"/>
<path d="M22.506 37.5114L20.3847 39.6327L22.506 41.754L24.6273 39.6327L22.506 37.5114ZM6.07844 21.0838L8.19976 18.9625H8.19976L6.07844 21.0838ZM3.4577 16.5135L0.544143 17.2285L0.546208 17.2369L0.548323 17.2453L3.4577 16.5135ZM3.47368 11.3359L6.38089 12.0763L6.38198 12.072L3.47368 11.3359ZM6.07844 6.82954L8.18215 8.96832L8.18258 8.9679L6.07844 6.82954ZM10.6328 4.22479L11.3604 7.13524L11.3731 7.132L10.6328 4.22479ZM15.7624 4.22479L15.0177 7.13089L15.022 7.132L15.7624 4.22479ZM20.3327 6.82954L18.2373 8.97648L18.2433 8.98229L20.3327 6.82954ZM22.506 8.93892L20.4166 11.0917L22.506 13.1196L24.5954 11.0917L22.506 8.93892ZM24.6793 6.82954L22.5925 4.67429L22.5899 4.6768L24.6793 6.82954ZM29.2496 4.22479L29.9943 7.13089L29.9943 7.13089L29.2496 4.22479ZM34.3632 4.22479L33.6185 7.13089L33.6292 7.13362L33.6399 7.13628L34.3632 4.22479ZM38.9336 6.82954L36.8294 8.9679L36.8298 8.96832L38.9336 6.82954ZM41.5383 11.3359L38.63 12.072L38.6311 12.0763L41.5383 11.3359ZM41.5383 16.5135L38.6289 15.7817L38.6268 15.7901L38.6248 15.7985L41.5383 16.5135ZM38.9336 21.0838L41.0549 23.2051V23.2051L38.9336 21.0838ZM22.506 30.9116L20.3834 33.0316L22.506 35.1568L24.6286 33.0316L22.506 30.9116ZM35.6257 17.7759L33.5206 15.6385L33.5118 15.6471L33.5031 15.6559L35.6257 17.7759ZM37.0319 15.3469L39.9404 16.0824L39.9423 16.0746L37.0319 15.3469ZM37.0319 12.5504L34.1157 13.2543L34.1195 13.2701L34.1235 13.2859L37.0319 12.5504ZM35.6576 10.1534L33.5363 12.2747L33.5529 12.2913L33.5697 12.3076L35.6576 10.1534ZM33.1967 8.73118L32.4532 11.6376L32.4612 11.6396L33.1967 8.73118ZM30.4321 8.74716L31.1676 11.6556L31.1833 11.6516L31.1989 11.6475L30.4321 8.74716ZM27.9233 10.1854L30.0126 12.3382L30.0136 12.3372L27.9233 10.1854ZM22.506 15.4428L20.4167 17.5957L22.506 19.6234L24.5953 17.5957L22.506 15.4428ZM17.0887 10.1854L14.983 12.3221L14.9911 12.3302L14.9994 12.3382L17.0887 10.1854ZM14.5799 8.74716L13.8131 11.6475L13.8326 11.6527L13.8523 11.6576L14.5799 8.74716ZM9.35436 10.1534L11.4423 12.3076L11.4511 12.299L11.4599 12.2904L9.35436 10.1534ZM7.96409 12.5504L5.05564 11.815L5.05166 11.8307L5.04784 11.8465L7.96409 12.5504ZM7.98007 15.3469L5.06964 16.0746L5.07454 16.0942L5.07971 16.1137L7.98007 15.3469ZM9.38632 17.7759L11.5089 15.6559L11.5076 15.6546L9.38632 17.7759ZM22.506 37.5114L24.6273 35.39L8.19976 18.9625L6.07844 21.0838L3.95712 23.2051L20.3847 39.6327L22.506 37.5114ZM6.07844 21.0838L8.19976 18.9625C7.25879 18.0215 6.66683 16.9734 6.36707 15.7817L3.4577 16.5135L0.548323 17.2453C1.12215 19.5266 2.27734 21.5254 3.95712 23.2051L6.07844 21.0838ZM3.4577 16.5135L6.37125 15.7985C6.06123 14.5352 6.06692 13.3092 6.38089 12.0763L3.47368 11.3359L0.566464 10.5956C0.00685215 12.7931 0.00189018 15.0188 0.544143 17.2285L3.4577 16.5135ZM3.47368 11.3359L6.38198 12.072C6.68066 10.8919 7.26407 9.87136 8.18215 8.96832L6.07844 6.82954L3.97472 4.69077C2.29337 6.34455 1.14028 8.32832 0.565374 10.5999L3.47368 11.3359ZM6.07844 6.82954L8.18258 8.9679C9.15765 8.00843 10.2085 7.42318 11.3604 7.13522L10.6328 4.22479L9.90516 1.31436C7.64795 1.87866 5.66257 3.02992 3.97429 4.69119L6.07844 6.82954ZM10.6328 4.22479L11.3731 7.132C12.604 6.81854 13.8032 6.81968 15.0177 7.13089L15.7624 4.22479L16.5071 1.31868C14.3124 0.75631 12.0919 0.757455 9.89242 1.31757L10.6328 4.22479ZM15.7624 4.22479L15.022 7.132C16.2 7.43199 17.2626 8.02513 18.2373 8.97647L20.3327 6.82954L22.4281 4.68262C20.7395 3.03452 18.7551 1.89117 16.5027 1.31757L15.7624 4.22479ZM20.3327 6.82954L18.2433 8.98229L20.4166 11.0917L22.506 8.93892L24.5954 6.78618L22.4221 4.6768L20.3327 6.82954ZM22.506 8.93892L24.5954 11.0917L26.7687 8.98229L24.6793 6.82954L22.5899 4.6768L20.4166 6.78618L22.506 8.93892ZM24.6793 6.82954L26.7661 8.9848C27.7579 8.02449 28.8262 7.43022 29.9943 7.13089L29.2496 4.22479L28.5049 1.31868C26.2639 1.89293 24.2853 3.03516 22.5925 4.67429L24.6793 6.82954ZM29.2496 4.22479L29.9943 7.13089C31.2103 6.8193 32.4026 6.8193 33.6185 7.13089L34.3632 4.22479L35.1079 1.31868C32.9148 0.756698 30.698 0.756698 28.5049 1.31868L29.2496 4.22479ZM34.3632 4.22479L33.6399 7.13628C34.8038 7.42544 35.8578 8.0118 36.8294 8.9679L38.9336 6.82954L41.0377 4.69119C39.346 3.02655 37.3531 1.8764 35.0866 1.3133L34.3632 4.22479ZM38.9336 6.82954L36.8298 8.96832C37.7479 9.87136 38.3313 10.8919 38.63 12.072L41.5383 11.3359L44.4466 10.5999C43.8717 8.32832 42.7186 6.34455 41.0373 4.69077L38.9336 6.82954ZM41.5383 11.3359L38.6311 12.0763C38.9434 13.3027 38.9456 14.5226 38.6289 15.7817L41.5383 16.5135L44.4477 17.2453C45.0046 15.0314 45.0068 12.7996 44.4455 10.5956L41.5383 11.3359ZM41.5383 16.5135L38.6248 15.7985C38.3342 16.9827 37.7498 18.0249 36.8122 18.9625L38.9336 21.0838L41.0549 23.2051C42.738 21.522 43.8902 19.5173 44.4519 17.2285L41.5383 16.5135ZM38.9336 21.0838L36.8122 18.9625L20.3847 35.39L22.506 37.5114L24.6273 39.6327L41.0549 23.2051L38.9336 21.0838ZM22.506 30.9116L24.6286 33.0316L37.7483 19.896L35.6257 17.7759L33.5031 15.6559L20.3834 28.7915L22.506 30.9116ZM35.6257 17.7759L37.7307 19.9134C38.8116 18.8489 39.567 17.559 39.9404 16.0824L37.0319 15.3469L34.1235 14.6115C34.0281 14.9886 33.846 15.318 33.5206 15.6385L35.6257 17.7759ZM37.0319 15.3469L39.9423 16.0746C40.2955 14.6621 40.2975 13.2272 39.9404 11.815L37.0319 12.5504L34.1235 13.2859C34.2351 13.7273 34.2371 14.1568 34.1215 14.6193L37.0319 15.3469ZM37.0319 12.5504L39.9482 11.8465C39.5896 10.3609 38.8409 9.06086 37.7455 7.99921L35.6576 10.1534L33.5697 12.3076C33.8593 12.5883 34.0268 12.8862 34.1157 13.2543L37.0319 12.5504ZM35.6576 10.1534L37.7789 8.03209C36.7049 6.95805 35.4132 6.19724 33.9322 5.82273L33.1967 8.73118L32.4612 11.6396C32.8339 11.7339 33.1828 11.9212 33.5363 12.2747L35.6576 10.1534ZM33.1967 8.73118L33.9402 5.82477C32.5212 5.46178 31.0798 5.47288 29.6654 5.8468L30.4321 8.74716L31.1989 11.6475C31.6382 11.5314 32.0398 11.5318 32.4532 11.6376L33.1967 8.73118ZM30.4321 8.74716L29.6967 5.83871C28.2155 6.21325 26.9221 6.97549 25.8329 8.03353L27.9233 10.1854L30.0136 12.3372C30.4159 11.9464 30.795 11.7498 31.1676 11.6556L30.4321 8.74716ZM27.9233 10.1854L25.8339 8.03253L20.4167 13.29L22.506 15.4428L24.5953 17.5957L30.0126 12.3382L27.9233 10.1854ZM22.506 15.4428L24.5953 13.29L19.1781 8.03253L17.0887 10.1854L14.9994 12.3382L20.4167 17.5957L22.506 15.4428ZM17.0887 10.1854L19.1945 8.04862C18.1044 6.97431 16.8008 6.21006 15.3075 5.83673L14.5799 8.74716L13.8523 11.6576C14.2339 11.753 14.6029 11.9476 14.983 12.3221L17.0887 10.1854ZM14.5799 8.74716L15.3466 5.8468C13.9322 5.47288 12.4908 5.46178 11.0718 5.82477L11.8153 8.73118L12.5588 11.6376C12.9722 11.5318 13.3738 11.5314 13.8131 11.6475L14.5799 8.74716ZM11.8153 8.73118L11.0718 5.82477C9.60287 6.20054 8.32174 6.95928 7.24881 8.01643L9.35436 10.1534L11.4599 12.2904C11.8358 11.92 12.1953 11.7306 12.5588 11.6376L11.8153 8.73118ZM9.35436 10.1534L7.26644 7.99921C6.17776 9.05438 5.42779 10.3432 5.05564 11.815L7.96409 12.5504L10.8725 13.2859C10.9691 12.9039 11.146 12.5948 11.4423 12.3076L9.35436 10.1534ZM7.96409 12.5504L5.04784 11.8465C4.70893 13.2506 4.71949 14.6739 5.06964 16.0746L7.98007 15.3469L10.8905 14.6193C10.7719 14.1449 10.7718 13.704 10.8803 13.2543L7.96409 12.5504ZM7.98007 15.3469L5.07971 16.1137C5.46323 17.5644 6.2062 18.8384 7.265 19.8972L9.38632 17.7759L11.5076 15.6546C11.1815 15.3285 10.987 14.9832 10.8804 14.5802L7.98007 15.3469ZM9.38632 17.7759L7.26371 19.896L20.3834 33.0316L22.506 30.9116L24.6286 28.7915L11.5089 15.6559L9.38632 17.7759Z" fill="#464646" mask="url(#path-1-outside-1_7_175)"/>
</svg>
