<svg width="30" height="30" viewBox="0 0 30 30" fill="none" xmlns="http://www.w3.org/2000/svg">
<path d="M11.208 14.106H12.8592L12.0336 11.7603L11.208 14.106Z" fill="black"/>
<path d="M15.0648 1.776C1.32957 1.7037 -5.03883 16.2048 7.45227 22.6464C7.23267 23.4033 6.04167 27.516 5.99427 27.8391C5.96037 28.092 6.15267 28.3035 6.46497 28.1952C6.91587 28.1322 11.6928 24.7767 12.5196 24.1941C32.3265 26.5647 36.2268 2.6859 15.0648 1.776ZM7.96887 16.2285C7.94187 17.2671 6.34377 17.271 6.31557 16.2285V11.3175H5.02557C3.95727 11.2905 3.95517 9.7263 5.02557 9.6987H9.25857C10.3275 9.7269 10.329 11.289 9.25857 11.3175H7.96857L7.96887 16.2285ZM14.9166 16.8933C14.5455 17.0889 13.8279 17.0415 13.7031 16.6422L13.2936 15.5706H10.7727L10.3632 16.6428C10.239 17.0412 9.52077 17.0892 9.15027 16.8933C8.92227 16.7883 8.70327 16.4991 8.95437 15.7194L10.9317 10.5147C11.3364 9.4473 12.7281 9.4425 13.1352 10.5156L15.1119 15.7179C15.3636 16.4991 15.1446 16.7883 14.9166 16.8933ZM19.0947 16.8972H16.4424C16.0056 16.8972 15.6501 16.5573 15.6501 16.1394V10.5249C15.6786 9.4368 17.3088 9.4335 17.3379 10.5249V15.3816H19.0947C20.1381 15.4074 20.1405 16.8708 19.0947 16.8972ZM25.566 16.2747C25.4925 16.9833 24.4965 17.2446 24.0876 16.6581L22.149 14.0895L21.8622 14.3763V16.1799C21.8349 17.268 20.2371 17.2722 20.2086 16.1802V10.5249C20.2374 9.4359 21.8328 9.4338 21.8619 10.5249V12.3018L24.1683 9.9954C24.4449 9.7149 24.9261 9.7752 25.1958 10.0557C25.4763 10.3224 25.5372 10.809 25.2564 11.0832L23.3724 12.9669L25.4073 15.6627C25.5402 15.837 25.5972 16.0578 25.566 16.2747Z" fill="black"/>
</svg>
