<svg width="129" height="129" viewBox="0 0 129 129" fill="none" xmlns="http://www.w3.org/2000/svg">
<path d="M64.5004 65.5431C76.1983 65.5431 85.6814 56.5116 85.6814 45.3707C85.6814 34.2298 76.1983 25.1983 64.5004 25.1983C52.8024 25.1983 43.3193 34.2298 43.3193 45.3707C43.3193 56.5116 52.8024 65.5431 64.5004 65.5431Z" stroke="#464646" stroke-width="4" stroke-linecap="round" stroke-linejoin="round"/>
<path d="M26.1729 102.862C30.1783 95.4699 35.8078 89.3605 42.52 85.1212C49.2323 80.8819 56.8016 78.6552 64.5004 78.6552C72.1992 78.6552 79.7686 80.8819 86.4808 85.1212C93.1931 89.3605 98.8226 95.4699 102.828 102.862" stroke="#464646" stroke-width="4" stroke-linecap="round" stroke-linejoin="round"/>
<g filter="url(#filter0_d_71_40)">
<path d="M64.5 119C96.8087 119 123 92.8087 123 60.5C123 28.1913 96.8087 2 64.5 2C32.1913 2 6 28.1913 6 60.5C6 92.8087 32.1913 119 64.5 119Z" stroke="#464646" stroke-width="4" stroke-linecap="round" stroke-linejoin="round" shape-rendering="crispEdges"/>
</g>
<defs>
<filter id="filter0_d_71_40" x="0" y="0" width="129" height="129" filterUnits="userSpaceOnUse" color-interpolation-filters="sRGB">
<feFlood flood-opacity="0" result="BackgroundImageFix"/>
<feColorMatrix in="SourceAlpha" type="matrix" values="0 0 0 0 0 0 0 0 0 0 0 0 0 0 0 0 0 0 127 0" result="hardAlpha"/>
<feOffset dy="4"/>
<feGaussianBlur stdDeviation="2"/>
<feComposite in2="hardAlpha" operator="out"/>
<feColorMatrix type="matrix" values="0 0 0 0 0 0 0 0 0 0 0 0 0 0 0 0 0 0 0.25 0"/>
<feBlend mode="normal" in2="BackgroundImageFix" result="effect1_dropShadow_71_40"/>
<feBlend mode="normal" in="SourceGraphic" in2="effect1_dropShadow_71_40" result="shape"/>
</filter>
</defs>
</svg>
