<svg width="239" height="46" viewBox="0 0 239 46" fill="none" xmlns="http://www.w3.org/2000/svg">
<g filter="url(#filter0_d_6_46)">
<path d="M27.0938 16.2188L27 16.5234L26.7188 16.6172C24.6719 17.1797 22.8906 18.0391 21.375 19.1953C22.1719 19.8984 23.0234 20.4922 23.9297 20.9766C24.8359 21.4609 25.8281 21.8438 26.9062 22.125L27.1875 22.2188L27.3281 22.5234C27.3281 22.5547 27.3516 22.6797 27.3984 22.8984C27.4453 23.1172 27.4688 23.4062 27.4688 23.7656C27.4688 24.0781 27.4453 24.3594 27.3984 24.6094C27.3672 24.8594 27.3125 25.1016 27.2344 25.3359C27.5 25.8203 27.6875 26.3281 27.7969 26.8594C27.9062 27.375 27.9609 27.8125 27.9609 28.1719C27.9609 28.7969 27.8984 29.3047 27.7734 29.6953C27.6484 30.0859 27.5703 30.2969 27.5391 30.3281L27.375 30.5859L27.0469 30.6328C23.8594 31.0078 21.1719 32.1719 18.9844 34.125L18.7031 34.2656C17.9219 34.4219 17.1953 34.5938 16.5234 34.7812C15.8672 34.9531 15.2344 35.1719 14.625 35.4375C14.0312 35.7031 13.4531 36.0234 12.8906 36.3984C12.3281 36.7734 11.7656 37.2344 11.2031 37.7812L10.7812 37.9688C10.75 37.9688 10.625 37.9531 10.4062 37.9219C10.1875 37.9062 9.90625 37.8359 9.5625 37.7109C9.23438 37.5859 8.86719 37.3828 8.46094 37.1016C8.07031 36.8203 7.6875 36.4219 7.3125 35.9062C6.75 35.7656 6.28125 35.5781 5.90625 35.3438C5.54688 35.0938 5.25 34.8516 5.01562 34.6172C4.79688 34.3672 4.64062 34.1562 4.54688 33.9844C4.46875 33.7969 4.42969 33.6875 4.42969 33.6562L4.33594 33.3984L4.42969 33.2109C4.78906 32.3359 5.05469 31.4531 5.22656 30.5625C5.39844 29.6562 5.48438 28.7188 5.48438 27.75C5.48438 27.0938 5.44531 26.4375 5.36719 25.7812C5.30469 25.1094 5.1875 24.4219 5.01562 23.7188V23.4141C5.20312 22.6484 5.35156 21.8984 5.46094 21.1641C5.58594 20.4141 5.64844 19.6641 5.64844 18.9141C5.64844 18.0703 5.57812 17.25 5.4375 16.4531C5.29688 15.6562 5.10938 14.8594 4.875 14.0625L4.82812 13.875L4.92188 13.6875C5.59375 11.9688 5.92969 10.2578 5.92969 8.55469C5.92969 7.86719 5.875 7.1875 5.76562 6.51562C5.67188 5.84375 5.51562 5.15625 5.29688 4.45312L5.20312 4.17188L5.39062 3.9375C5.40625 3.92188 5.46875 3.85938 5.57812 3.75C5.6875 3.625 5.85156 3.48438 6.07031 3.32812C6.28906 3.15625 6.57031 2.99219 6.91406 2.83594C7.25781 2.66406 7.66406 2.53125 8.13281 2.4375C8.44531 1.9375 8.79688 1.54688 9.1875 1.26562C9.57812 0.96875 9.94531 0.75 10.2891 0.609375C10.6484 0.46875 10.9375 0.382812 11.1562 0.351562C11.3906 0.304688 11.5 0.28125 11.4844 0.28125H11.7422L11.9297 0.421875C12.4297 0.875 12.9297 1.26562 13.4297 1.59375C13.9297 1.92188 14.4453 2.21094 14.9766 2.46094C15.5234 2.69531 16.1016 2.89844 16.7109 3.07031C17.3203 3.22656 17.9844 3.375 18.7031 3.51562C18.7812 3.54688 18.8594 3.5625 18.9375 3.5625C19.0156 3.5625 19.0938 3.5625 19.1719 3.5625H19.3594L19.5703 3.70312C20.1953 4.23438 20.7891 4.69531 21.3516 5.08594C21.9297 5.46094 22.5234 5.78125 23.1328 6.04688C23.7422 6.29688 24.3828 6.49219 25.0547 6.63281C25.7266 6.77344 26.4688 6.86719 27.2812 6.91406H27.5859L27.7734 7.19531C27.7734 7.21094 27.7969 7.27344 27.8438 7.38281C27.9062 7.49219 27.9688 7.64844 28.0312 7.85156C28.0938 8.05469 28.1484 8.29688 28.1953 8.57812C28.2578 8.85938 28.2891 9.17188 28.2891 9.51562C28.2891 9.82812 28.2578 10.1562 28.1953 10.5C28.1484 10.8438 28.0547 11.2188 27.9141 11.625C27.6797 12.2656 27.4062 12.7891 27.0938 13.1953C27.1719 13.4922 27.2266 13.7734 27.2578 14.0391C27.3047 14.2891 27.3281 14.5234 27.3281 14.7422C27.3281 15.1797 27.2891 15.5312 27.2109 15.7969C27.1328 16.0469 27.0938 16.1875 27.0938 16.2188ZM16.8281 11.9531L16.5469 11.8125C15.9375 11.4688 15.375 11.1484 14.8594 10.8516C14.3438 10.5547 13.8438 10.2969 13.3594 10.0781C13.3594 10.6562 13.4062 11.2344 13.5 11.8125C13.5938 12.375 13.7266 12.9297 13.8984 13.4766V13.8281C13.8203 14.1094 13.75 14.3828 13.6875 14.6484C13.625 14.9141 13.5703 15.1797 13.5234 15.4453L14.1797 14.7891L14.3203 14.6016L14.5312 14.5547C15.4375 14.3359 16.2969 14.0547 17.1094 13.7109C17.9219 13.3516 18.7031 12.9062 19.4531 12.375C18.6562 12.1875 17.7812 12.0469 16.8281 11.9531ZM13.8047 24.0938C13.4141 25.2656 13.1719 26.4531 13.0781 27.6562C13.2969 27.5312 13.5078 27.4062 13.7109 27.2812C13.9297 27.1562 14.1484 27.0078 14.3672 26.8359L14.7188 26.5547L14.8594 26.3906L15.0938 26.3438C15.5938 26.3125 16.0938 26.2578 16.5938 26.1797C17.1094 26.0859 17.6172 25.9688 18.1172 25.8281C17.0859 25.25 16 24.7656 14.8594 24.375L14.5781 24.2344L14.1797 23.8594C14.1016 23.8906 14.0391 23.9297 13.9922 23.9766C13.9453 24.0078 13.8828 24.0469 13.8047 24.0938ZM47.5547 19.4297C47.5547 20.1328 47.4609 20.75 47.2734 21.2812C47.0859 21.7969 46.875 22.2344 46.6406 22.5938C46.4062 22.9531 46.1875 23.2266 45.9844 23.4141C45.7969 23.6016 45.6953 23.7031 45.6797 23.7188L45.4453 23.9062L45.1172 23.8125C44.2422 23.5156 43.4688 23.2969 42.7969 23.1562C42.1406 23.0156 41.4844 22.9453 40.8281 22.9453C40.3438 22.9453 39.8672 22.9922 39.3984 23.0859L39.5391 23.3672L39.6328 23.5781L39.5391 23.7656C39.1641 24.8281 38.9062 25.8828 38.7656 26.9297C39.0156 26.8672 39.2969 26.8125 39.6094 26.7656C39.9219 26.7188 40.2188 26.6797 40.5 26.6484C40.7812 26.6172 41.0156 26.5938 41.2031 26.5781C41.3906 26.5625 41.4922 26.5547 41.5078 26.5547L41.6953 26.4844L41.8828 26.6016C42.7734 26.9609 43.5312 27.2344 44.1562 27.4219C44.7812 27.6094 45.4141 27.7031 46.0547 27.7031C46.4922 27.7031 46.9688 27.6562 47.4844 27.5625C48 27.4688 48.5859 27.3359 49.2422 27.1641L49.5234 27.0703L49.7578 27.2578C49.7734 27.2891 49.8594 27.3906 50.0156 27.5625C50.1875 27.7188 50.3672 27.9688 50.5547 28.3125C50.7422 28.6406 50.9141 29.0625 51.0703 29.5781C51.2266 30.0781 51.3047 30.6797 51.3047 31.3828C51.2891 32.0859 51.1797 32.6953 50.9766 33.2109C50.7734 33.7266 50.5547 34.1641 50.3203 34.5234C50.0859 34.8672 49.8672 35.1328 49.6641 35.3203C49.4609 35.5078 49.3516 35.6094 49.3359 35.625L49.0312 35.7656L48.75 35.6719C47.8281 35.3281 47.0625 35.0859 46.4531 34.9453C45.8438 34.7891 45.25 34.7109 44.6719 34.7109C44.2656 34.7109 43.8438 34.75 43.4062 34.8281C42.9688 34.8906 42.4609 34.9922 41.8828 35.1328H41.5547C41.1172 35.0547 40.6797 34.9688 40.2422 34.875C39.8203 34.7656 39.3906 34.6641 38.9531 34.5703C38.7969 34.7422 38.5938 34.9297 38.3438 35.1328C38.1094 35.3203 37.8125 35.4922 37.4531 35.6484C37.1094 35.8047 36.7031 35.9297 36.2344 36.0234C35.7812 36.1328 35.2656 36.1875 34.6875 36.1875C33.7656 36.1875 33 36.0625 32.3906 35.8125C31.7969 35.5625 31.3203 35.2891 30.9609 34.9922C30.6172 34.6797 30.375 34.3984 30.2344 34.1484C30.0938 33.8828 30.0234 33.7344 30.0234 33.7031L29.9297 33.5156L30.0234 33.2578C30.3828 32.3984 30.6484 31.5156 30.8203 30.6094C30.9922 29.7031 31.0781 28.7812 31.0781 27.8438C31.0781 27.1875 31.0391 26.5234 30.9609 25.8516C30.8984 25.1797 30.7812 24.4844 30.6094 23.7656V23.4609C30.7969 22.6953 30.9453 21.9453 31.0547 21.2109C31.1797 20.4609 31.2422 19.7109 31.2422 18.9609C31.2422 18.1328 31.1719 17.3203 31.0312 16.5234C30.8906 15.7266 30.7031 14.9375 30.4688 14.1562L30.4219 13.9219L30.5156 13.7344C30.8594 12.8906 31.1094 12.0469 31.2656 11.2031C31.4375 10.3438 31.5234 9.49219 31.5234 8.64844C31.5234 7.96094 31.4688 7.28125 31.3594 6.60938C31.2656 5.92188 31.1094 5.22656 30.8906 4.52344L30.7969 4.21875L30.9844 3.98438C31 3.96875 31.0938 3.875 31.2656 3.70312C31.4375 3.51562 31.6953 3.32031 32.0391 3.11719C32.3984 2.89844 32.8438 2.71094 33.375 2.55469C33.9062 2.38281 34.5391 2.29688 35.2734 2.29688C36.1172 2.29688 36.8359 2.41406 37.4297 2.64844C38.0234 2.88281 38.5 3.13281 38.8594 3.39844C39.3125 3.35156 39.7891 3.28125 40.2891 3.1875C40.7891 3.09375 41.2891 2.96094 41.7891 2.78906L41.9766 2.69531L42.2344 2.74219C42.9844 2.97656 43.6328 3.15625 44.1797 3.28125C44.7422 3.39062 45.2734 3.44531 45.7734 3.44531C46.3203 3.44531 46.8906 3.375 47.4844 3.23438C48.0781 3.09375 48.7734 2.88281 49.5703 2.60156L49.8516 2.48438L50.1094 2.64844C50.125 2.66406 50.2266 2.75 50.4141 2.90625C50.6016 3.0625 50.8047 3.30469 51.0234 3.63281C51.2422 3.94531 51.4453 4.35156 51.6328 4.85156C51.8359 5.33594 51.9609 5.92969 52.0078 6.63281V7.05469C52.0078 7.67969 51.9297 8.23438 51.7734 8.71875C51.6172 9.20312 51.4375 9.61719 51.2344 9.96094C51.0469 10.2891 50.8672 10.5391 50.6953 10.7109C50.5391 10.8828 50.4531 10.9766 50.4375 10.9922L50.2031 11.1797L49.8516 11.0859C49.1016 10.9141 48.4609 10.7891 47.9297 10.7109C47.3984 10.6172 46.9062 10.5703 46.4531 10.5703C45.9219 10.5703 45.3906 10.6328 44.8594 10.7578C44.3438 10.8672 43.7188 11.0391 42.9844 11.2734L42.6562 11.3203C42 11.1953 41.3672 11.1016 40.7578 11.0391C40.1641 10.9766 39.5625 10.9453 38.9531 10.9453C39 11.3828 39.0625 11.8203 39.1406 12.2578C39.2344 12.6797 39.3516 13.1094 39.4922 13.5469V13.875C39.3984 14.1562 39.3203 14.4375 39.2578 14.7188C39.2109 14.9844 39.1641 15.2656 39.1172 15.5625C39.5703 15.6875 39.9922 15.7734 40.3828 15.8203C40.7891 15.8672 41.2109 15.8906 41.6484 15.8906C42.2266 15.8906 42.8125 15.8438 43.4062 15.75C44 15.6406 44.6484 15.4766 45.3516 15.2578L45.6328 15.1641L45.8672 15.3516C45.8828 15.3672 45.9766 15.4609 46.1484 15.6328C46.3359 15.7891 46.5312 16.0391 46.7344 16.3828C46.9531 16.7109 47.1406 17.1328 47.2969 17.6484C47.4688 18.1484 47.5547 18.7422 47.5547 19.4297ZM81.3047 21.0703C81.3359 21.2578 81.3594 21.4453 81.375 21.6328C81.3906 21.8047 81.3984 21.9844 81.3984 22.1719C81.3984 22.6406 81.3516 23.0938 81.2578 23.5312C81.1797 23.9531 81.0859 24.3359 80.9766 24.6797C80.8672 25.0078 80.7656 25.2812 80.6719 25.5C80.5938 25.7031 80.5469 25.8125 80.5312 25.8281L80.3438 26.1562C80.1094 26.125 79.8594 26.1016 79.5938 26.0859C79.3281 26.0703 79.0391 26.0625 78.7266 26.0625C78.6016 26.0625 78.4766 26.0625 78.3516 26.0625C78.2422 26.0625 78.125 26.0781 78 26.1094C77.9531 26.4219 77.9219 26.7422 77.9062 27.0703C77.9062 27.3984 77.9062 27.7188 77.9062 28.0312C77.9062 28.9219 77.9688 29.8047 78.0938 30.6797C78.2188 31.5547 78.375 32.3672 78.5625 33.1172L78.6094 33.3047L78.5156 33.5156C78.5 33.5469 78.4062 33.6953 78.2344 33.9609C78.0625 34.2266 77.7891 34.5156 77.4141 34.8281C77.0547 35.125 76.5781 35.3984 75.9844 35.6484C75.3906 35.8828 74.6719 36 73.8281 36C72.9688 36 72.2344 35.8906 71.625 35.6719C71.0312 35.4531 70.5391 35.2109 70.1484 34.9453C69.7734 34.6641 69.4922 34.4141 69.3047 34.1953C69.1328 33.9609 69.0391 33.8281 69.0234 33.7969L68.8828 33.5625L68.9766 33.3047C69.2578 32.5391 69.4922 31.6797 69.6797 30.7266C69.8672 29.7734 69.9844 28.8594 70.0312 27.9844C69.5625 28.0781 69.0938 28.2031 68.625 28.3594C68.1562 28.5 67.7109 28.6562 67.2891 28.8281C66.8672 29 66.4688 29.1797 66.0938 29.3672C65.7344 29.5391 65.4141 29.7031 65.1328 29.8594L64.8516 29.9531C64.5391 29.9531 64.1484 29.9609 63.6797 29.9766C63.2266 29.9922 62.7812 30 62.3438 30C62.4219 30.7969 62.5234 31.4922 62.6484 32.0859C62.7734 32.6641 62.8984 33.0859 63.0234 33.3516L63.1172 33.6094L63.0234 33.7969C63.0078 33.8281 62.9219 33.9688 62.7656 34.2188C62.6094 34.4531 62.3516 34.7109 61.9922 34.9922C61.6328 35.2734 61.1406 35.5312 60.5156 35.7656C59.9062 35.9844 59.1406 36.0938 58.2188 36.0938C57.2969 36.0938 56.5312 35.9766 55.9219 35.7422C55.3281 35.4922 54.8516 35.2188 54.4922 34.9219C54.1484 34.6094 53.9062 34.3281 53.7656 34.0781C53.625 33.8281 53.5547 33.6875 53.5547 33.6562L53.4609 33.3984L53.5547 33.2109C53.9141 32.3359 54.1797 31.4531 54.3516 30.5625C54.5234 29.6562 54.6094 28.7188 54.6094 27.75C54.6094 27.0938 54.5703 26.4375 54.4922 25.7812C54.4297 25.1094 54.3125 24.4219 54.1406 23.7188V23.4141C54.3281 22.6484 54.4766 21.8984 54.5859 21.1641C54.7109 20.4141 54.7734 19.6641 54.7734 18.9141C54.7734 18.0703 54.7031 17.25 54.5625 16.4531C54.4219 15.6562 54.2344 14.8594 54 14.0625L53.9531 13.875L54.0469 13.6875C54.7188 11.9688 55.0547 10.2578 55.0547 8.55469C55.0547 7.86719 55 7.1875 54.8906 6.51562C54.7969 5.84375 54.6406 5.15625 54.4219 4.45312L54.3281 4.17188L54.5156 3.9375C54.5312 3.92188 54.625 3.82812 54.7969 3.65625C54.9688 3.46875 55.2266 3.27344 55.5703 3.07031C55.9297 2.85156 56.375 2.66406 56.9062 2.50781C57.4375 2.33594 58.0703 2.25 58.8047 2.25C59.5547 2.25 60.2031 2.35156 60.75 2.55469C61.2969 2.74219 61.75 2.95312 62.1094 3.1875C62.4844 3.42188 62.7656 3.64062 62.9531 3.84375C63.1406 4.04688 63.2422 4.15625 63.2578 4.17188L63.4922 4.40625L63.3516 4.71094C63.0703 5.57031 62.8516 6.41406 62.6953 7.24219C62.5547 8.05469 62.4844 8.875 62.4844 9.70312C62.4844 10.3594 62.5234 11 62.6016 11.625C62.6953 12.2344 62.8359 12.8516 63.0234 13.4766V13.8281C62.8047 14.5781 62.6406 15.2969 62.5312 15.9844C62.4375 16.6719 62.3906 17.375 62.3906 18.0938C62.3906 18.7656 62.4297 19.4609 62.5078 20.1797C62.5859 20.8828 62.7109 21.6406 62.8828 22.4531L63.6562 22.0312L63.9844 21.9844C64.0625 22 64.1641 22.0156 64.2891 22.0312C64.3984 22.0469 64.5234 22.0625 64.6641 22.0781C64.8047 22.0781 64.9766 22.0781 65.1797 22.0781C65.7578 22.0781 66.4766 22 67.3359 21.8438C68.2109 21.6719 69.1562 21.3203 70.1719 20.7891C70.2031 20.4922 70.2266 20.1953 70.2422 19.8984C70.2578 19.6016 70.2656 19.3047 70.2656 19.0078C70.2656 18.1328 70.2031 17.2891 70.0781 16.4766C69.9531 15.6641 69.7891 14.9062 69.5859 14.2031V13.8281C70.0703 12.3906 70.3125 10.9688 70.3125 9.5625C70.3125 8.73438 70.2344 7.92969 70.0781 7.14844C69.9375 6.35156 69.7109 5.55469 69.3984 4.75781L69.2578 4.45312L69.3984 4.21875C69.4141 4.20312 69.5078 4.07812 69.6797 3.84375C69.8516 3.60938 70.1172 3.35938 70.4766 3.09375C70.8359 2.8125 71.2969 2.5625 71.8594 2.34375C72.4375 2.125 73.125 2.01562 73.9219 2.01562C74.7188 2.01562 75.4219 2.125 76.0312 2.34375C76.6406 2.5625 77.1562 2.80469 77.5781 3.07031C78 3.32031 78.3203 3.55469 78.5391 3.77344C78.7734 3.99219 78.8984 4.10938 78.9141 4.125L79.1484 4.40625L79.0547 4.71094C78.7109 5.64844 78.4609 6.57031 78.3047 7.47656C78.1641 8.38281 78.0938 9.28125 78.0938 10.1719C78.0938 10.7969 78.125 11.4219 78.1875 12.0469C78.2656 12.6719 78.3906 13.2812 78.5625 13.875V14.2031C78.375 14.75 78.2109 15.3359 78.0703 15.9609C77.9297 16.5703 77.8438 17.25 77.8125 18C77.9062 17.9219 78 17.8516 78.0938 17.7891C78.1875 17.7109 78.2812 17.625 78.375 17.5312L78.6094 17.625C78.6406 17.6406 78.7734 17.7031 79.0078 17.8125C79.2578 17.9062 79.5312 18.0859 79.8281 18.3516C80.125 18.6016 80.4141 18.9453 80.6953 19.3828C80.9766 19.8203 81.1797 20.3828 81.3047 21.0703ZM92.8828 4.40625L92.7422 4.71094C92.4609 5.57031 92.2422 6.41406 92.0859 7.24219C91.9453 8.05469 91.875 8.875 91.875 9.70312C91.875 10.3594 91.9141 11 91.9922 11.625C92.0859 12.2344 92.2266 12.8516 92.4141 13.4766V13.8281C91.9297 15.5312 91.6875 17.1641 91.6875 18.7266C91.6875 19.5234 91.75 20.3047 91.875 21.0703C92 21.8203 92.1953 22.5703 92.4609 23.3203L92.5547 23.5312L92.4609 23.7188C92.1641 24.5156 91.9453 25.3203 91.8047 26.1328C91.6641 26.9297 91.5938 27.7422 91.5938 28.5703C91.5938 29.3828 91.6562 30.1875 91.7812 30.9844C91.9062 31.7656 92.1172 32.5547 92.4141 33.3516L92.5078 33.6094L92.4141 33.7969C92.3984 33.8281 92.3125 33.9688 92.1562 34.2188C92 34.4531 91.7422 34.7109 91.3828 34.9922C91.0234 35.2734 90.5312 35.5312 89.9062 35.7656C89.2969 35.9844 88.5312 36.0938 87.6094 36.0938C86.6875 36.0938 85.9219 35.9766 85.3125 35.7422C84.7188 35.4922 84.2422 35.2188 83.8828 34.9219C83.5391 34.6094 83.2969 34.3281 83.1562 34.0781C83.0156 33.8281 82.9453 33.6875 82.9453 33.6562L82.8516 33.3984L82.9453 33.2109C83.3047 32.3359 83.5703 31.4531 83.7422 30.5625C83.9141 29.6562 84 28.7188 84 27.75C84 27.0938 83.9609 26.4375 83.8828 25.7812C83.8203 25.1094 83.7031 24.4219 83.5312 23.7188V23.4141C83.7188 22.6484 83.8672 21.8984 83.9766 21.1641C84.1016 20.4141 84.1641 19.6641 84.1641 18.9141C84.1641 18.0703 84.0938 17.25 83.9531 16.4531C83.8125 15.6562 83.625 14.8594 83.3906 14.0625L83.3438 13.875L83.4375 13.6875C84.1094 11.9688 84.4453 10.2578 84.4453 8.55469C84.4453 7.86719 84.3906 7.1875 84.2812 6.51562C84.1875 5.84375 84.0312 5.15625 83.8125 4.45312L83.7188 4.17188L83.9062 3.9375C83.9219 3.92188 84.0156 3.82812 84.1875 3.65625C84.3594 3.46875 84.6172 3.27344 84.9609 3.07031C85.3203 2.85156 85.7656 2.66406 86.2969 2.50781C86.8281 2.33594 87.4609 2.25 88.1953 2.25C88.9453 2.25 89.5938 2.35156 90.1406 2.55469C90.6875 2.74219 91.1406 2.95312 91.5 3.1875C91.875 3.42188 92.1562 3.64062 92.3438 3.84375C92.5312 4.04688 92.6328 4.15625 92.6484 4.17188L92.8828 4.40625ZM121.664 4.52344L121.57 4.80469C121.289 5.67969 121.062 6.53125 120.891 7.35938C120.734 8.1875 120.656 9.01562 120.656 9.84375C120.656 10.4688 120.703 11.0938 120.797 11.7188C120.906 12.3281 121.055 12.9531 121.242 13.5938V13.9219C120.758 15.5781 120.516 17.1953 120.516 18.7734C120.516 19.5859 120.578 20.375 120.703 21.1406C120.828 21.9062 121.023 22.6641 121.289 23.4141V23.8125C120.977 24.625 120.742 25.4453 120.586 26.2734C120.445 27.1016 120.375 27.9297 120.375 28.7578C120.375 30.3359 120.648 31.8984 121.195 33.4453L121.289 33.7031L121.195 33.8906C121.18 33.9219 121.094 34.0625 120.938 34.3125C120.781 34.5469 120.523 34.8047 120.164 35.0859C119.805 35.3672 119.32 35.625 118.711 35.8594C118.102 36.0781 117.344 36.1875 116.438 36.1875C115.688 36.1875 115.047 36.1172 114.516 35.9766C113.984 35.8203 113.539 35.6172 113.18 35.3672H112.945C112.523 35.3672 112.148 35.3281 111.82 35.25C111.492 35.1562 111.219 35.0625 111 34.9688C110.781 34.8594 110.609 34.7578 110.484 34.6641C110.375 34.5547 110.312 34.4844 110.297 34.4531L110.109 34.3125V34.0781C110.031 32.4844 109.703 30.9609 109.125 29.5078C108.547 28.0547 107.703 26.6172 106.594 25.1953L106.5 24.9609C106.312 23.8984 106.047 22.8984 105.703 21.9609C105.375 21.0234 104.969 20.1172 104.484 19.2422C104.516 19.9766 104.586 20.6875 104.695 21.375C104.82 22.0625 105.008 22.7422 105.258 23.4141L105.352 23.625L105.258 23.8125C104.961 24.6094 104.742 25.4141 104.602 26.2266C104.461 27.0234 104.391 27.8359 104.391 28.6641C104.391 29.4766 104.453 30.2812 104.578 31.0781C104.703 31.8594 104.914 32.6484 105.211 33.4453L105.305 33.7031L105.211 33.8906C105.195 33.9219 105.109 34.0625 104.953 34.3125C104.797 34.5469 104.539 34.8047 104.18 35.0859C103.82 35.3672 103.328 35.625 102.703 35.8594C102.094 36.0781 101.328 36.1875 100.406 36.1875C99.4844 36.1875 98.7188 36.0703 98.1094 35.8359C97.5156 35.5859 97.0391 35.3125 96.6797 35.0156C96.3359 34.7031 96.0938 34.4219 95.9531 34.1719C95.8125 33.9219 95.7422 33.7812 95.7422 33.75L95.6484 33.5156L95.7422 33.3047C96.1016 32.4453 96.3672 31.5625 96.5391 30.6562C96.7109 29.75 96.7969 28.8125 96.7969 27.8438C96.7969 27.1875 96.7578 26.5312 96.6797 25.875C96.6172 25.2031 96.5 24.5156 96.3281 23.8125V23.5312C96.5156 22.75 96.6641 21.9844 96.7734 21.2344C96.8984 20.4688 96.9609 19.7266 96.9609 19.0078C96.9609 18.1641 96.8906 17.3438 96.75 16.5469C96.6094 15.75 96.4219 14.9531 96.1875 14.1562L96.1406 13.9688L96.2344 13.7812C96.9062 12.0625 97.2422 10.3516 97.2422 8.64844C97.2422 7.96094 97.1875 7.28906 97.0781 6.63281C96.9844 5.96094 96.8281 5.27344 96.6094 4.57031L96.5156 4.26562L96.7031 4.03125C96.7188 4.01562 96.8125 3.92188 96.9844 3.75C97.1562 3.5625 97.4141 3.36719 97.7578 3.16406C98.1172 2.94531 98.5625 2.75781 99.0938 2.60156C99.625 2.42969 100.258 2.34375 100.992 2.34375C101.695 2.34375 102.297 2.42969 102.797 2.60156C103.312 2.75781 103.75 2.94531 104.109 3.16406H104.484C105.141 3.16406 105.664 3.24219 106.055 3.39844C106.445 3.53906 106.656 3.625 106.688 3.65625L106.992 3.79688L107.039 4.07812C107.367 7.29688 108.484 10 110.391 12.1875L110.531 12.3281V12.4688C110.938 15.0312 111.742 17.2422 112.945 19.1016V19.0547C112.945 18.2109 112.883 17.3906 112.758 16.5938C112.633 15.7969 112.453 14.9844 112.219 14.1562V13.7812C112.891 12.0625 113.227 10.3203 113.227 8.55469C113.227 7.21094 113.031 5.88281 112.641 4.57031L112.547 4.26562L112.734 4.03125C112.75 4.01562 112.844 3.92188 113.016 3.75C113.188 3.5625 113.445 3.36719 113.789 3.16406C114.148 2.94531 114.594 2.75781 115.125 2.60156C115.656 2.42969 116.289 2.34375 117.023 2.34375C117.758 2.34375 118.398 2.44531 118.945 2.64844C119.492 2.83594 119.953 3.04688 120.328 3.28125C120.703 3.51562 120.984 3.73438 121.172 3.9375C121.359 4.14062 121.461 4.25 121.477 4.26562L121.664 4.52344ZM148.477 22.2656L148.43 22.6172L148.148 22.7578C146.727 23.5234 145.508 24.4219 144.492 25.4531C143.477 26.4688 142.633 27.6328 141.961 28.9453L141.914 29.1328L141.773 29.1797C141.148 29.5547 140.508 30.0078 139.852 30.5391C139.195 31.0703 138.57 31.6562 137.977 32.2969C137.383 32.9219 136.836 33.5859 136.336 34.2891C135.836 34.9922 135.422 35.7031 135.094 36.4219L135 36.6328L134.766 36.7266C134.734 36.7578 134.602 36.8047 134.367 36.8672C134.148 36.9297 133.859 36.9609 133.5 36.9609C133.141 36.9609 132.719 36.8906 132.234 36.75C131.766 36.6094 131.266 36.3594 130.734 36C130.484 36.0469 130.227 36.0859 129.961 36.1172C129.711 36.1641 129.438 36.1875 129.141 36.1875C128.219 36.1875 127.453 36.0625 126.844 35.8125C126.25 35.5625 125.773 35.2891 125.414 34.9922C125.07 34.6797 124.828 34.3984 124.688 34.1484C124.547 33.8828 124.477 33.7344 124.477 33.7031L124.383 33.5156L124.477 33.2578C124.836 32.3984 125.102 31.5156 125.273 30.6094C125.445 29.7031 125.531 28.7812 125.531 27.8438C125.531 27.1875 125.492 26.5234 125.414 25.8516C125.352 25.1797 125.234 24.4844 125.062 23.7656V23.4609C125.25 22.6953 125.398 21.9453 125.508 21.2109C125.633 20.4609 125.695 19.7109 125.695 18.9609C125.695 18.1328 125.625 17.3203 125.484 16.5234C125.344 15.7266 125.156 14.9375 124.922 14.1562L124.875 13.9219L124.969 13.7344C125.312 12.8906 125.562 12.0469 125.719 11.2031C125.891 10.3438 125.977 9.49219 125.977 8.64844C125.977 7.96094 125.922 7.28125 125.812 6.60938C125.719 5.92188 125.562 5.22656 125.344 4.52344L125.25 4.21875L125.438 3.98438C125.453 3.96875 125.547 3.875 125.719 3.70312C125.891 3.51562 126.148 3.32031 126.492 3.11719C126.852 2.89844 127.297 2.71094 127.828 2.55469C128.359 2.38281 128.992 2.29688 129.727 2.29688H130.195C130.773 1.84375 131.312 1.54688 131.812 1.40625C132.328 1.26562 132.781 1.19531 133.172 1.19531C133.516 1.19531 133.789 1.21875 133.992 1.26562C134.211 1.3125 134.336 1.33594 134.367 1.33594L134.578 1.42969L134.672 1.6875C134.953 2.28125 135.32 2.88281 135.773 3.49219C136.227 4.08594 136.727 4.66406 137.273 5.22656C137.82 5.77344 138.398 6.29688 139.008 6.79688C139.633 7.29688 140.25 7.75 140.859 8.15625L141.281 8.34375L141.469 8.4375L141.586 8.64844C142.305 10.1172 143.195 11.3906 144.258 12.4688C145.32 13.5469 146.586 14.4609 148.055 15.2109L148.336 15.3047L148.383 15.6562C148.383 15.6875 148.391 15.7266 148.406 15.7734C148.406 15.8047 148.406 15.8516 148.406 15.9141C148.422 15.9609 148.43 16.0156 148.43 16.0781C148.43 16.375 148.367 16.7812 148.242 17.2969C148.117 17.8125 147.859 18.3672 147.469 18.9609C147.703 19.2891 147.883 19.6094 148.008 19.9219C148.148 20.2344 148.25 20.5312 148.312 20.8125C148.391 21.0781 148.438 21.3203 148.453 21.5391C148.469 21.7578 148.477 21.9219 148.477 22.0312V22.2656ZM134.086 23.5781L133.992 23.7656C133.867 24.0938 133.758 24.4297 133.664 24.7734C133.57 25.1016 133.484 25.4375 133.406 25.7812C133.75 25.3281 134.086 24.8984 134.414 24.4922C134.758 24.0859 135.016 23.7656 135.188 23.5312L135.281 23.3203L135.469 23.2266C137.484 22.2109 139.164 20.8359 140.508 19.1016C139.852 18.2578 139.133 17.5156 138.352 16.875C137.586 16.2188 136.742 15.6484 135.82 15.1641L135.586 14.9297C135.289 14.5391 134.984 14.1484 134.672 13.7578C134.359 13.3516 134.039 12.9609 133.711 12.5859C133.742 12.7578 133.773 12.9219 133.805 13.0781C133.852 13.2188 133.898 13.375 133.945 13.5469V13.875C133.461 15.5781 133.219 17.2109 133.219 18.7734C133.219 19.5703 133.281 20.3516 133.406 21.1172C133.531 21.8672 133.727 22.6172 133.992 23.3672L134.086 23.5781ZM182.32 31.7812C182.32 31.8125 182.297 31.9688 182.25 32.25C182.219 32.5312 182.102 32.875 181.898 33.2812C181.695 33.6719 181.367 34.0938 180.914 34.5469C180.477 35 179.859 35.4062 179.062 35.7656C178.578 35.9844 178.133 36.1328 177.727 36.2109C177.336 36.2891 176.961 36.3281 176.602 36.3281C176.18 36.3281 175.805 36.2812 175.477 36.1875C175.148 36.0938 174.867 35.9844 174.633 35.8594C174.414 35.7344 174.242 35.625 174.117 35.5312C174.008 35.4219 173.945 35.3516 173.93 35.3203L173.766 35.1797L173.719 34.9453C173.688 34.2734 173.625 33.6641 173.531 33.1172C173.438 32.5547 173.297 32.0156 173.109 31.5C172.922 30.9688 172.68 30.4375 172.383 29.9062C172.102 29.375 171.766 28.7969 171.375 28.1719L170.906 27.7031V27.4453C170.875 27.0391 170.828 26.625 170.766 26.2031C170.719 25.7812 170.648 25.3672 170.555 24.9609C169.305 25.8828 168.25 26.9375 167.391 28.125V28.6641C167.391 29.4609 167.453 30.25 167.578 31.0312C167.703 31.8125 167.914 32.6016 168.211 33.3984L168.305 33.6562L168.211 33.8438C168.195 33.875 168.109 34.0156 167.953 34.2656C167.797 34.5 167.539 34.7656 167.18 35.0625C166.82 35.3438 166.328 35.6016 165.703 35.8359C165.094 36.0703 164.328 36.1875 163.406 36.1875C162.484 36.1875 161.719 36.0625 161.109 35.8125C160.516 35.5625 160.039 35.2891 159.68 34.9922C159.336 34.6797 159.094 34.3984 158.953 34.1484C158.812 33.8828 158.742 33.7344 158.742 33.7031L158.648 33.5156L158.742 33.2578C159.102 32.3984 159.367 31.5156 159.539 30.6094C159.711 29.7031 159.797 28.7812 159.797 27.8438C159.797 27.1875 159.758 26.5234 159.68 25.8516C159.617 25.1797 159.5 24.4844 159.328 23.7656V23.4609C159.516 22.6953 159.664 21.9453 159.773 21.2109C159.898 20.4609 159.961 19.7109 159.961 18.9609C159.961 18.1328 159.891 17.3203 159.75 16.5234C159.609 15.7266 159.422 14.9375 159.188 14.1562L159.141 13.9219L159.234 13.7344C159.578 12.8906 159.828 12.0469 159.984 11.2031C160.156 10.3438 160.242 9.49219 160.242 8.64844C160.242 7.96094 160.188 7.28125 160.078 6.60938C159.984 5.92188 159.828 5.22656 159.609 4.52344L159.516 4.21875L159.703 3.98438C159.719 3.96875 159.812 3.875 159.984 3.70312C160.156 3.51562 160.414 3.32031 160.758 3.11719C161.117 2.89844 161.562 2.71094 162.094 2.55469C162.625 2.38281 163.258 2.29688 163.992 2.29688C164.742 2.29688 165.391 2.39844 165.938 2.60156C166.484 2.78906 166.938 3 167.297 3.23438C167.672 3.46875 167.953 3.6875 168.141 3.89062C168.328 4.09375 168.43 4.20312 168.445 4.21875L168.68 4.45312L168.539 4.75781C168.258 5.61719 168.039 6.46875 167.883 7.3125C167.742 8.14062 167.672 8.95312 167.672 9.75C167.672 10.4062 167.711 11.0469 167.789 11.6719C167.883 12.2812 168.023 12.9062 168.211 13.5469V13.875C168.117 14.1875 168.039 14.5 167.977 14.8125C167.914 15.1094 167.844 15.4062 167.766 15.7031C168.375 15 168.898 14.2656 169.336 13.5C169.789 12.7344 170.18 11.9141 170.508 11.0391L170.602 10.8516L170.789 10.7578C172.211 9.92969 173.422 8.95312 174.422 7.82812C175.438 6.6875 176.25 5.34375 176.859 3.79688L177 3.51562L177.281 3.44531C177.312 3.44531 177.383 3.42969 177.492 3.39844C177.602 3.36719 177.758 3.35156 177.961 3.35156C178.367 3.35156 178.891 3.44531 179.531 3.63281C180.188 3.82031 180.891 4.21094 181.641 4.80469C182.219 5.27344 182.664 5.75781 182.977 6.25781C183.289 6.74219 183.516 7.19531 183.656 7.61719C183.812 8.02344 183.898 8.36719 183.914 8.64844C183.945 8.91406 183.961 9.05469 183.961 9.07031V9.39844L183.656 9.60938C182.281 10.4688 181.125 11.4453 180.188 12.5391C179.25 13.6172 178.508 14.8438 177.961 16.2188L177.703 16.4531C177.375 16.7031 177.055 16.9609 176.742 17.2266C176.43 17.4766 176.133 17.7344 175.852 18C176.117 19.1094 176.484 20.1406 176.953 21.0938C177.438 22.0312 178.039 22.9219 178.758 23.7656L178.875 24.0469C179.031 24.8438 179.188 25.5703 179.344 26.2266C179.5 26.8672 179.695 27.4688 179.93 28.0312C180.18 28.5938 180.477 29.1406 180.82 29.6719C181.164 30.2031 181.602 30.7578 182.133 31.3359L182.32 31.5469V31.7812ZM194.695 4.40625L194.555 4.71094C194.273 5.57031 194.055 6.41406 193.898 7.24219C193.758 8.05469 193.688 8.875 193.688 9.70312C193.688 10.3594 193.727 11 193.805 11.625C193.898 12.2344 194.039 12.8516 194.227 13.4766V13.8281C193.742 15.5312 193.5 17.1641 193.5 18.7266C193.5 19.5234 193.562 20.3047 193.688 21.0703C193.812 21.8203 194.008 22.5703 194.273 23.3203L194.367 23.5312L194.273 23.7188C193.977 24.5156 193.758 25.3203 193.617 26.1328C193.477 26.9297 193.406 27.7422 193.406 28.5703C193.406 29.3828 193.469 30.1875 193.594 30.9844C193.719 31.7656 193.93 32.5547 194.227 33.3516L194.32 33.6094L194.227 33.7969C194.211 33.8281 194.125 33.9688 193.969 34.2188C193.812 34.4531 193.555 34.7109 193.195 34.9922C192.836 35.2734 192.344 35.5312 191.719 35.7656C191.109 35.9844 190.344 36.0938 189.422 36.0938C188.5 36.0938 187.734 35.9766 187.125 35.7422C186.531 35.4922 186.055 35.2188 185.695 34.9219C185.352 34.6094 185.109 34.3281 184.969 34.0781C184.828 33.8281 184.758 33.6875 184.758 33.6562L184.664 33.3984L184.758 33.2109C185.117 32.3359 185.383 31.4531 185.555 30.5625C185.727 29.6562 185.812 28.7188 185.812 27.75C185.812 27.0938 185.773 26.4375 185.695 25.7812C185.633 25.1094 185.516 24.4219 185.344 23.7188V23.4141C185.531 22.6484 185.68 21.8984 185.789 21.1641C185.914 20.4141 185.977 19.6641 185.977 18.9141C185.977 18.0703 185.906 17.25 185.766 16.4531C185.625 15.6562 185.438 14.8594 185.203 14.0625L185.156 13.875L185.25 13.6875C185.922 11.9688 186.258 10.2578 186.258 8.55469C186.258 7.86719 186.203 7.1875 186.094 6.51562C186 5.84375 185.844 5.15625 185.625 4.45312L185.531 4.17188L185.719 3.9375C185.734 3.92188 185.828 3.82812 186 3.65625C186.172 3.46875 186.43 3.27344 186.773 3.07031C187.133 2.85156 187.578 2.66406 188.109 2.50781C188.641 2.33594 189.273 2.25 190.008 2.25C190.758 2.25 191.406 2.35156 191.953 2.55469C192.5 2.74219 192.953 2.95312 193.312 3.1875C193.688 3.42188 193.969 3.64062 194.156 3.84375C194.344 4.04688 194.445 4.15625 194.461 4.17188L194.695 4.40625ZM211.734 24.3281L211.641 24.5391C211.062 26.1328 210.773 27.6484 210.773 29.0859C210.773 29.7891 210.836 30.4922 210.961 31.1953C211.102 31.8984 211.305 32.6484 211.57 33.4453L211.688 33.7031L211.57 33.8906C211.555 33.9219 211.469 34.0625 211.312 34.3125C211.156 34.5469 210.898 34.8047 210.539 35.0859C210.18 35.3672 209.695 35.625 209.086 35.8594C208.477 36.0781 207.711 36.1875 206.789 36.1875C205.867 36.1875 205.102 36.0703 204.492 35.8359C203.898 35.5859 203.43 35.3125 203.086 35.0156C202.742 34.7031 202.5 34.4219 202.359 34.1719C202.219 33.9219 202.141 33.7812 202.125 33.75L202.031 33.5156L202.125 33.3047C202.484 32.4453 202.75 31.6094 202.922 30.7969C203.094 29.9844 203.18 29.1562 203.18 28.3125C203.18 27.7344 203.141 27.1406 203.062 26.5312C203 25.9062 202.883 25.2422 202.711 24.5391V24.2344C202.93 23.4375 203.086 22.6875 203.18 21.9844C203.273 21.2812 203.32 20.5938 203.32 19.9219C203.32 18.5 203.078 17.0625 202.594 15.6094L202.5 15.3984L202.594 15.2109C202.938 14.3672 203.18 13.5234 203.32 12.6797C203.477 11.8203 203.57 10.9688 203.602 10.125H203.367C201.773 10.125 200.188 10.4141 198.609 10.9922L198.422 11.0391L198.188 10.9453C198.156 10.9453 198.016 10.875 197.766 10.7344C197.516 10.5938 197.234 10.3516 196.922 10.0078C196.625 9.66406 196.359 9.20312 196.125 8.625C195.875 8.03125 195.75 7.28125 195.75 6.375C195.75 5.53125 195.867 4.84375 196.102 4.3125C196.336 3.76562 196.594 3.33594 196.875 3.02344C197.172 2.69531 197.438 2.46875 197.672 2.34375C197.922 2.20312 198.062 2.125 198.094 2.10938L198.281 2.01562L198.516 2.10938C199.203 2.35938 199.891 2.53906 200.578 2.64844C201.266 2.74219 201.977 2.78906 202.711 2.78906C203.367 2.78906 204.07 2.76562 204.82 2.71875C205.586 2.65625 206.305 2.5 206.977 2.25L207.164 2.15625L207.352 2.25C208.148 2.51562 208.898 2.71094 209.602 2.83594C210.32 2.96094 211.031 3.02344 211.734 3.02344C213 3.02344 214.391 2.78125 215.906 2.29688L216.188 2.20312L216.422 2.39062C216.438 2.40625 216.539 2.49219 216.727 2.64844C216.914 2.80469 217.109 3.04688 217.312 3.375C217.531 3.6875 217.727 4.09375 217.898 4.59375C218.086 5.07812 218.188 5.65625 218.203 6.32812C218.203 7.03125 218.117 7.64844 217.945 8.17969C217.773 8.69531 217.578 9.13281 217.359 9.49219C217.156 9.83594 216.961 10.1016 216.773 10.2891C216.586 10.4609 216.484 10.5703 216.469 10.6172L216.234 10.8047L215.906 10.7109C215.109 10.4609 214.375 10.2891 213.703 10.1953C213.047 10.0859 212.391 10.0312 211.734 10.0312H211.055C211.023 10.25 211.016 10.4609 211.031 10.6641C211.047 10.8516 211.055 11.0391 211.055 11.2266C211.055 11.8828 211.094 12.5234 211.172 13.1484C211.266 13.7734 211.398 14.3984 211.57 15.0234V15.3047C211.336 16.1797 211.156 16.9844 211.031 17.7188C210.922 18.4531 210.867 19.1719 210.867 19.875C210.867 20.5938 210.93 21.2969 211.055 21.9844C211.18 22.6719 211.375 23.3906 211.641 24.1406L211.734 24.3281Z" fill="black"/>
<path d="M234.179 25.541L234.003 26.2002C233.681 27.1084 233.446 27.958 233.3 28.749C233.153 29.5107 233.08 30.2432 233.08 30.9463C233.08 31.5029 233.109 32.0156 233.168 32.4844C233.256 32.9238 233.373 33.3779 233.52 33.8467L233.695 34.374L233.344 34.8135C232.582 35.6338 231.645 36.2637 230.531 36.7031C229.418 37.1426 228.231 37.3623 226.972 37.3623C225.653 37.3623 224.438 37.1426 223.324 36.7031C222.211 36.2637 221.288 35.6338 220.556 34.8135L220.116 34.374L220.292 33.8467C220.673 32.7627 220.863 31.708 220.863 30.6826C220.863 29.3057 220.556 27.8408 219.94 26.2881L219.677 25.6289L220.116 25.1895C220.937 24.4277 221.918 23.8418 223.061 23.4316C224.232 22.9922 225.507 22.7725 226.884 22.7725C228.202 22.7725 229.447 22.9775 230.619 23.3877C231.82 23.7979 232.846 24.3691 233.695 25.1016L234.179 25.541Z" fill="#E35050"/>
</g>
<defs>
<filter id="filter0_d_6_46" x="0.335938" y="0.28125" width="237.843" height="45.6875" filterUnits="userSpaceOnUse" color-interpolation-filters="sRGB">
<feFlood flood-opacity="0" result="BackgroundImageFix"/>
<feColorMatrix in="SourceAlpha" type="matrix" values="0 0 0 0 0 0 0 0 0 0 0 0 0 0 0 0 0 0 127 0" result="hardAlpha"/>
<feOffset dy="4"/>
<feGaussianBlur stdDeviation="2"/>
<feComposite in2="hardAlpha" operator="out"/>
<feColorMatrix type="matrix" values="0 0 0 0 0 0 0 0 0 0 0 0 0 0 0 0 0 0 0.25 0"/>
<feBlend mode="normal" in2="BackgroundImageFix" result="effect1_dropShadow_6_46"/>
<feBlend mode="normal" in="SourceGraphic" in2="effect1_dropShadow_6_46" result="shape"/>
</filter>
</defs>
</svg>
