<svg width="30" height="29" viewBox="0 0 30 29" fill="none" xmlns="http://www.w3.org/2000/svg">
<mask id="path-1-outside-1_8_4" maskUnits="userSpaceOnUse" x="0" y="0" width="30" height="29" fill="black">
<rect fill="white" width="30" height="29"/>
<path d="M15.004 25.3409L4.05229 14.3892C3.17871 13.5156 2.59632 12.5 2.30513 11.3423C2.02104 10.1847 2.02459 9.03409 2.31578 7.89062C2.60698 6.74006 3.18581 5.73864 4.05229 4.88636C4.94007 4.01278 5.95215 3.43395 7.08851 3.14986C8.23198 2.85866 9.37189 2.85866 10.5083 3.14986C11.6517 3.44105 12.6673 4.01989 13.5551 4.88636L15.004 6.29261L16.4529 4.88636C17.3477 4.01989 18.3634 3.44105 19.4997 3.14986C20.6361 2.85866 21.7725 2.85866 22.9088 3.14986C24.0523 3.43395 25.0679 4.01278 25.9557 4.88636C26.8222 5.73864 27.401 6.74006 27.6922 7.89062C27.9834 9.03409 27.9834 10.1847 27.6922 11.3423C27.4081 12.5 26.8293 13.5156 25.9557 14.3892L15.004 25.3409ZM15.004 20.9411L23.7504 12.1839C24.2192 11.7223 24.5317 11.1825 24.6879 10.5646C24.8442 9.93963 24.8442 9.31818 24.6879 8.70028C24.5388 8.08239 24.2334 7.54972 23.7718 7.10227C23.2959 6.62642 22.749 6.31037 22.1311 6.15412C21.5203 5.99787 20.906 6.00142 20.2881 6.16477C19.6702 6.32102 19.1127 6.64062 18.6155 7.12358L15.004 10.6286L11.3925 7.12358C10.9024 6.64062 10.3449 6.32102 9.7199 6.16477C9.10201 6.00142 8.48766 5.99787 7.87686 6.15412C7.26607 6.31037 6.71919 6.62642 6.23624 7.10227C5.77459 7.54972 5.46564 8.08239 5.30939 8.70028C5.16025 9.31818 5.1638 9.93963 5.32005 10.5646C5.4834 11.1825 5.7959 11.7223 6.25755 12.1839L15.004 20.9411Z"/>
</mask>
<path d="M15.004 25.3409L4.05229 14.3892C3.17871 13.5156 2.59632 12.5 2.30513 11.3423C2.02104 10.1847 2.02459 9.03409 2.31578 7.89062C2.60698 6.74006 3.18581 5.73864 4.05229 4.88636C4.94007 4.01278 5.95215 3.43395 7.08851 3.14986C8.23198 2.85866 9.37189 2.85866 10.5083 3.14986C11.6517 3.44105 12.6673 4.01989 13.5551 4.88636L15.004 6.29261L16.4529 4.88636C17.3477 4.01989 18.3634 3.44105 19.4997 3.14986C20.6361 2.85866 21.7725 2.85866 22.9088 3.14986C24.0523 3.43395 25.0679 4.01278 25.9557 4.88636C26.8222 5.73864 27.401 6.74006 27.6922 7.89062C27.9834 9.03409 27.9834 10.1847 27.6922 11.3423C27.4081 12.5 26.8293 13.5156 25.9557 14.3892L15.004 25.3409ZM15.004 20.9411L23.7504 12.1839C24.2192 11.7223 24.5317 11.1825 24.6879 10.5646C24.8442 9.93963 24.8442 9.31818 24.6879 8.70028C24.5388 8.08239 24.2334 7.54972 23.7718 7.10227C23.2959 6.62642 22.749 6.31037 22.1311 6.15412C21.5203 5.99787 20.906 6.00142 20.2881 6.16477C19.6702 6.32102 19.1127 6.64062 18.6155 7.12358L15.004 10.6286L11.3925 7.12358C10.9024 6.64062 10.3449 6.32102 9.7199 6.16477C9.10201 6.00142 8.48766 5.99787 7.87686 6.15412C7.26607 6.31037 6.71919 6.62642 6.23624 7.10227C5.77459 7.54972 5.46564 8.08239 5.30939 8.70028C5.16025 9.31818 5.1638 9.93963 5.32005 10.5646C5.4834 11.1825 5.7959 11.7223 6.25755 12.1839L15.004 20.9411Z" fill="white"/>
<path d="M15.004 25.3409L13.5898 26.7551L15.004 28.1693L16.4182 26.7551L15.004 25.3409ZM4.05229 14.3892L5.4665 12.975H5.4665L4.05229 14.3892ZM2.30513 11.3423L0.362729 11.819L0.365548 11.8302L2.30513 11.3423ZM2.31578 7.89062L4.25393 8.38419L4.25465 8.38133L2.31578 7.89062ZM4.05229 4.88636L5.45477 6.31222L5.45505 6.31193L4.05229 4.88636ZM7.08851 3.14986L7.57359 5.09016L7.58208 5.088L7.08851 3.14986ZM10.5083 3.14986L10.0118 5.08726L10.0147 5.088L10.5083 3.14986ZM13.5551 4.88636L12.1582 6.31765L12.1622 6.32152L13.5551 4.88636ZM15.004 6.29261L13.611 7.72777L15.004 9.07976L16.3969 7.72778L15.004 6.29261ZM16.4529 4.88636L15.0616 3.44953L15.0599 3.4512L16.4529 4.88636ZM19.4997 3.14986L19.9962 5.08726L19.9962 5.08726L19.4997 3.14986ZM22.9088 3.14986L22.4124 5.08726L22.4195 5.08908L22.4266 5.09085L22.9088 3.14986ZM25.9557 4.88636L24.5529 6.31194L24.5532 6.31222L25.9557 4.88636ZM27.6922 7.89062L25.7533 8.38133L25.7541 8.38419L27.6922 7.89062ZM27.6922 11.3423L25.7526 10.8545L25.7498 10.8657L27.6922 11.3423ZM25.9557 14.3892L27.3699 15.8034L25.9557 14.3892ZM15.004 20.9411L13.5889 22.3544L15.004 23.7712L16.4191 22.3544L15.004 20.9411ZM23.7504 12.1839L22.3471 10.759L22.3412 10.7648L22.3354 10.7706L23.7504 12.1839ZM24.6879 10.5646L26.6269 11.0549L26.6282 11.0497L24.6879 10.5646ZM24.6879 8.70028L22.7438 9.16956L22.7463 9.18009L22.749 9.1906L24.6879 8.70028ZM23.7718 7.10227L22.3575 8.51649L22.3686 8.52753L22.3798 8.53841L23.7718 7.10227ZM22.1311 6.15412L21.6355 8.09173L21.6408 8.09309L22.1311 6.15412ZM20.2881 6.16477L20.7784 8.10374L20.7888 8.1011L20.7993 8.09834L20.2881 6.16477ZM18.6155 7.12358L20.0084 8.5588L20.0091 8.55814L18.6155 7.12358ZM15.004 10.6286L13.6111 12.0638L15.004 13.4156L16.3969 12.0638L15.004 10.6286ZM11.3925 7.12358L9.98864 8.54808L9.9941 8.55346L9.9996 8.5588L11.3925 7.12358ZM9.7199 6.16477L9.20873 8.09834L9.22176 8.10179L9.23483 8.10506L9.7199 6.16477ZM6.23624 7.10227L7.62819 8.53841L7.63409 8.53269L7.63994 8.52692L6.23624 7.10227ZM5.30939 8.70028L3.37043 8.20997L3.36777 8.22047L3.36523 8.231L5.30939 8.70028ZM5.32005 10.5646L3.37976 11.0497L3.38303 11.0628L3.38647 11.0758L5.32005 10.5646ZM6.25755 12.1839L7.67262 10.7706L7.67176 10.7697L6.25755 12.1839ZM15.004 25.3409L16.4182 23.9267L5.4665 12.975L4.05229 14.3892L2.63808 15.8034L13.5898 26.7551L15.004 25.3409ZM4.05229 14.3892L5.4665 12.975C4.8392 12.3477 4.44455 11.6489 4.24471 10.8545L2.30513 11.3423L0.365548 11.8302C0.748098 13.3511 1.51823 14.6836 2.63808 15.8034L4.05229 14.3892ZM2.30513 11.3423L4.2475 10.8657C4.04082 10.0235 4.04462 9.20612 4.25393 8.38419L2.31578 7.89062L0.377643 7.39706C0.00456822 8.86206 0.00126004 10.3459 0.362762 11.819L2.30513 11.3423ZM2.31578 7.89062L4.25465 8.38133C4.45377 7.59457 4.84271 6.91424 5.45477 6.31222L4.05229 4.88636L2.64981 3.46051C1.52891 4.56303 0.760185 5.88555 0.376916 7.39992L2.31578 7.89062ZM4.05229 4.88636L5.45505 6.31193C6.1051 5.67229 6.80567 5.28212 7.57358 5.09014L7.08851 3.14986L6.60344 1.20957C5.09863 1.58577 3.77505 2.35328 2.64953 3.46079L4.05229 4.88636ZM7.08851 3.14986L7.58208 5.088C8.40268 4.87903 9.20215 4.87979 10.0118 5.08726L10.5083 3.14986L11.0047 1.21246C9.54163 0.83754 8.06127 0.838303 6.59495 1.21172L7.08851 3.14986ZM10.5083 3.14986L10.0147 5.088C10.8 5.28799 11.5084 5.68342 12.1582 6.31765L13.5551 4.88636L14.9521 3.45508C13.8263 2.35635 12.5034 1.59411 11.0018 1.21172L10.5083 3.14986ZM13.5551 4.88636L12.1622 6.32152L13.611 7.72777L15.004 6.29261L16.3969 4.85745L14.9481 3.4512L13.5551 4.88636ZM15.004 6.29261L16.3969 7.72778L17.8458 6.32153L16.4529 4.88636L15.0599 3.4512L13.611 4.85745L15.004 6.29261ZM16.4529 4.88636L17.8441 6.3232C18.5053 5.683 19.2175 5.28681 19.9962 5.08726L19.4997 3.14986L19.0033 1.21246C17.5093 1.59529 16.1902 2.35678 15.0616 3.44953L16.4529 4.88636ZM19.4997 3.14986L19.9962 5.08726C20.8068 4.87953 21.6017 4.87953 22.4124 5.08726L22.9088 3.14986L23.4053 1.21246C21.9432 0.837798 20.4653 0.837798 19.0033 1.21246L19.4997 3.14986ZM22.9088 3.14986L22.4266 5.09085C23.2025 5.28363 23.9052 5.67453 24.5529 6.31194L25.9557 4.88636L27.3585 3.46079C26.2307 2.35103 24.9021 1.58427 23.3911 1.20887L22.9088 3.14986ZM25.9557 4.88636L24.5532 6.31222C25.1653 6.91424 25.5542 7.59457 25.7533 8.38132L27.6922 7.89062L29.6311 7.39993C29.2478 5.88555 28.4791 4.56303 27.3582 3.46051L25.9557 4.88636ZM27.6922 7.89062L25.7541 8.38419C25.9623 9.2018 25.9638 10.015 25.7526 10.8545L27.6922 11.3423L29.6318 11.8302C30.003 10.3543 30.0045 8.86638 29.6303 7.39706L27.6922 7.89062ZM27.6922 11.3423L25.7498 10.8657C25.5561 11.6551 25.1665 12.3499 24.5415 12.975L25.9557 14.3892L27.3699 15.8034C28.492 14.6813 29.2601 13.3449 29.6346 11.819L27.6922 11.3423ZM25.9557 14.3892L24.5415 12.975L13.5898 23.9267L15.004 25.3409L16.4182 26.7551L27.3699 15.8034L25.9557 14.3892ZM15.004 20.9411L16.4191 22.3544L25.1655 13.5973L23.7504 12.1839L22.3354 10.7706L13.5889 19.5277L15.004 20.9411ZM23.7504 12.1839L25.1538 13.6089C25.8744 12.8993 26.378 12.0393 26.6269 11.0549L24.6879 10.5646L22.749 10.0743C22.6854 10.3257 22.564 10.5453 22.3471 10.759L23.7504 12.1839ZM24.6879 10.5646L26.6282 11.0497C26.8636 10.1081 26.865 9.1515 26.6269 8.20997L24.6879 8.70028L22.749 9.1906C22.8234 9.48487 22.8247 9.7712 22.7477 10.0796L24.6879 10.5646ZM24.6879 8.70028L26.6321 8.231C26.3931 7.24062 25.8939 6.37391 25.1637 5.66614L23.7718 7.10227L22.3798 8.53841C22.5729 8.72552 22.6845 8.92415 22.7438 9.16956L24.6879 8.70028ZM23.7718 7.10227L25.186 5.68806C24.4699 4.97203 23.6088 4.46483 22.6214 4.21515L22.1311 6.15412L21.6408 8.09309C21.8893 8.15591 22.1219 8.28081 22.3575 8.51649L23.7718 7.10227ZM22.1311 6.15412L22.6268 4.21651C21.6808 3.97452 20.7198 3.98192 19.7769 4.2312L20.2881 6.16477L20.7993 8.09834C21.0921 8.02092 21.3599 8.02122 21.6355 8.09172L22.1311 6.15412ZM20.2881 6.16477L19.7978 4.2258C18.8104 4.4755 17.948 4.98366 17.2219 5.68902L18.6155 7.12358L20.0091 8.55814C20.2773 8.29759 20.53 8.16655 20.7784 8.10374L20.2881 6.16477ZM18.6155 7.12358L17.2226 5.68836L13.6111 9.19333L15.004 10.6286L16.3969 12.0638L20.0084 8.5588L18.6155 7.12358ZM15.004 10.6286L16.3969 9.19333L12.7854 5.68836L11.3925 7.12358L9.9996 8.5588L13.6111 12.0638L15.004 10.6286ZM11.3925 7.12358L12.7963 5.69908C12.0696 4.98287 11.2005 4.47337 10.205 4.22449L9.7199 6.16477L9.23483 8.10506C9.48929 8.16867 9.73526 8.29838 9.98864 8.54808L11.3925 7.12358ZM9.7199 6.16477L10.2311 4.2312C9.28815 3.98192 8.32718 3.97452 7.3812 4.21651L7.87686 6.15412L8.37253 8.09172C8.64814 8.02122 8.91587 8.02092 9.20873 8.09834L9.7199 6.16477ZM7.87686 6.15412L7.3812 4.21651C6.40191 4.46703 5.54783 4.97285 4.83254 5.67762L6.23624 7.10227L7.63994 8.52692C7.89056 8.27999 8.13023 8.15371 8.37253 8.09172L7.87686 6.15412ZM6.23624 7.10227L4.84429 5.66614C4.11851 6.36959 3.61853 7.22883 3.37043 8.20997L5.30939 8.70028L7.24836 9.1906C7.31276 8.93594 7.43067 8.72984 7.62819 8.53841L6.23624 7.10227ZM5.30939 8.70028L3.36523 8.231C3.13928 9.16706 3.14633 10.116 3.37976 11.0497L5.32005 10.5646L7.26033 10.0796C7.18126 9.76329 7.18121 9.46931 7.25356 9.16957L5.30939 8.70028ZM5.32005 10.5646L3.38647 11.0758C3.64215 12.0429 4.13747 12.8923 4.84333 13.5982L6.25755 12.1839L7.67176 10.7697C7.45433 10.5523 7.32465 10.3221 7.25362 10.0535L5.32005 10.5646ZM6.25755 12.1839L4.84247 13.5973L13.5889 22.3544L15.004 20.9411L16.4191 19.5277L7.67262 10.7706L6.25755 12.1839Z" fill="#464646" mask="url(#path-1-outside-1_8_4)"/>
</svg>
