<svg width="33" height="33" viewBox="0 0 33 33" fill="none" xmlns="http://www.w3.org/2000/svg">
<g clip-path="url(#clip0_71_42)">
<path d="M12.0998 5.20543L13.0946 2.63741C13.2624 2.20261 13.5575 1.82862 13.9415 1.56442C14.3254 1.30022 14.7801 1.15812 15.2462 1.15675H17.1433C17.6093 1.15812 18.0641 1.30022 18.448 1.56442C18.8319 1.82862 19.1271 2.20261 19.2949 2.63741L20.2897 5.20543L23.6674 7.1488L26.3974 6.73237C26.852 6.67066 27.3146 6.74549 27.7266 6.94735C28.1385 7.1492 28.4812 7.46896 28.711 7.866L29.6364 9.48547C29.8735 9.88883 29.9828 10.3546 29.9497 10.8214C29.9167 11.2881 29.7429 11.7338 29.4513 12.0998L27.7624 14.2514V18.1381L29.4976 20.2897C29.7892 20.6556 29.9629 21.1014 29.996 21.5681C30.029 22.0348 29.9198 22.5006 29.6826 22.904L28.7572 24.5235C28.5274 24.9205 28.1848 25.2402 27.7729 25.4421C27.3609 25.644 26.8983 25.7188 26.4437 25.6571L23.7137 25.2406L20.336 27.184L19.3411 29.752C19.1734 30.1868 18.8782 30.5608 18.4943 30.825C18.1103 31.0892 17.6556 31.2313 17.1895 31.2327H15.2462C14.7801 31.2313 14.3254 31.0892 13.9415 30.825C13.5575 30.5608 13.2624 30.1868 13.0946 29.752L12.0998 27.184L8.72201 25.2406L5.99204 25.6571C5.53747 25.7188 5.07481 25.644 4.66287 25.4421C4.25093 25.2402 3.90829 24.9205 3.6785 24.5235L2.75309 22.904C2.51596 22.5006 2.4067 22.0348 2.43974 21.5681C2.47279 21.1014 2.64657 20.6556 2.93817 20.2897L4.62705 18.1381V14.2514L2.8919 12.0998C2.6003 11.7338 2.42652 11.2881 2.39347 10.8214C2.36043 10.3546 2.46968 9.88883 2.70682 9.48547L3.63223 7.866C3.86202 7.46896 4.20466 7.1492 4.6166 6.94735C5.02854 6.74549 5.4912 6.67066 5.94577 6.73237L8.67574 7.1488L12.0998 5.20543ZM11.5677 16.1947C11.5677 17.1099 11.839 18.0045 12.3475 18.7654C12.8559 19.5263 13.5785 20.1194 14.424 20.4696C15.2695 20.8198 16.1999 20.9114 17.0974 20.7329C17.995 20.5543 18.8195 20.1137 19.4666 19.4666C20.1137 18.8194 20.5544 17.995 20.7329 17.0974C20.9114 16.1999 20.8198 15.2695 20.4696 14.424C20.1194 13.5785 19.5263 12.8559 18.7654 12.3475C18.0045 11.839 17.1099 11.5677 16.1947 11.5677C14.9676 11.5677 13.7906 12.0551 12.9229 12.9229C12.0552 13.7906 11.5677 14.9675 11.5677 16.1947V16.1947Z" stroke="#464646" stroke-width="2.31353" stroke-linecap="round" stroke-linejoin="round"/>
</g>
<defs>
<clipPath id="clip0_71_42">
<rect width="32.3895" height="32.3895" fill="white"/>
</clipPath>
</defs>
</svg>
